<mxfile host="app.diagrams.net" modified="2021-01-07T10:17:14.822Z" agent="5.0 (Windows NT 10.0; WOW64) AppleWebKit/537.36 (KHTML, like Gecko) Chrome/87.0.4280.88 Safari/537.36" etag="JVXBb4zWvk5Ss7qVZmZ2" version="14.1.8" type="github">
  <diagram id="Fh6i7QP5dPSacI5DkrBE" name="Page-1">
    <mxGraphModel dx="2579" dy="877" grid="1" gridSize="10" guides="1" tooltips="1" connect="1" arrows="1" fold="1" page="1" pageScale="1" pageWidth="1169" pageHeight="827" math="0" shadow="0">
      <root>
        <mxCell id="0" />
        <mxCell id="1" parent="0" />
        <mxCell id="GzetsZCdC6ZMWqAkh9Ud-10" style="edgeStyle=orthogonalEdgeStyle;curved=1;rounded=0;orthogonalLoop=1;jettySize=auto;html=1;exitX=0;exitY=0.5;exitDx=0;exitDy=0;exitPerimeter=0;endArrow=none;endFill=0;" edge="1" parent="1" source="GzetsZCdC6ZMWqAkh9Ud-2" target="GzetsZCdC6ZMWqAkh9Ud-5">
          <mxGeometry relative="1" as="geometry" />
        </mxCell>
        <mxCell id="GzetsZCdC6ZMWqAkh9Ud-14" style="edgeStyle=orthogonalEdgeStyle;curved=1;rounded=0;orthogonalLoop=1;jettySize=auto;html=1;exitX=0.5;exitY=1;exitDx=0;exitDy=0;exitPerimeter=0;entryX=0.5;entryY=0;entryDx=0;entryDy=0;entryPerimeter=0;endArrow=none;endFill=0;strokeColor=#CC0000;" edge="1" parent="1" source="GzetsZCdC6ZMWqAkh9Ud-2" target="GzetsZCdC6ZMWqAkh9Ud-3">
          <mxGeometry relative="1" as="geometry" />
        </mxCell>
        <mxCell id="GzetsZCdC6ZMWqAkh9Ud-2" value="" style="shape=mxgraph.cisco.routers.router;html=1;pointerEvents=1;dashed=0;fillColor=#036897;strokeColor=#ffffff;strokeWidth=2;verticalLabelPosition=bottom;verticalAlign=top;align=center;outlineConnect=0;" vertex="1" parent="1">
          <mxGeometry x="-678" y="244" width="78" height="53" as="geometry" />
        </mxCell>
        <mxCell id="GzetsZCdC6ZMWqAkh9Ud-6" style="edgeStyle=orthogonalEdgeStyle;rounded=0;orthogonalLoop=1;jettySize=auto;html=1;exitX=0.5;exitY=0;exitDx=0;exitDy=0;exitPerimeter=0;" edge="1" parent="1" source="GzetsZCdC6ZMWqAkh9Ud-3">
          <mxGeometry relative="1" as="geometry">
            <mxPoint x="-640.5714285714284" y="471" as="targetPoint" />
          </mxGeometry>
        </mxCell>
        <mxCell id="GzetsZCdC6ZMWqAkh9Ud-12" style="edgeStyle=orthogonalEdgeStyle;curved=1;rounded=0;orthogonalLoop=1;jettySize=auto;html=1;exitX=1;exitY=0.5;exitDx=0;exitDy=0;exitPerimeter=0;entryX=0.5;entryY=1;entryDx=0;entryDy=0;entryPerimeter=0;endArrow=none;endFill=0;" edge="1" parent="1" source="GzetsZCdC6ZMWqAkh9Ud-3" target="GzetsZCdC6ZMWqAkh9Ud-4">
          <mxGeometry relative="1" as="geometry" />
        </mxCell>
        <mxCell id="GzetsZCdC6ZMWqAkh9Ud-37" style="edgeStyle=orthogonalEdgeStyle;curved=1;rounded=0;orthogonalLoop=1;jettySize=auto;html=1;exitX=0.5;exitY=1;exitDx=0;exitDy=0;exitPerimeter=0;entryX=0.5;entryY=0;entryDx=0;entryDy=0;entryPerimeter=0;endArrow=none;endFill=0;strokeColor=#000000;" edge="1" parent="1" source="GzetsZCdC6ZMWqAkh9Ud-3" target="GzetsZCdC6ZMWqAkh9Ud-26">
          <mxGeometry relative="1" as="geometry" />
        </mxCell>
        <mxCell id="GzetsZCdC6ZMWqAkh9Ud-3" value="" style="shape=mxgraph.cisco.routers.router;html=1;pointerEvents=1;dashed=0;fillColor=#036897;strokeColor=#ffffff;strokeWidth=2;verticalLabelPosition=bottom;verticalAlign=top;align=center;outlineConnect=0;" vertex="1" parent="1">
          <mxGeometry x="-678" y="450" width="78" height="53" as="geometry" />
        </mxCell>
        <mxCell id="GzetsZCdC6ZMWqAkh9Ud-13" style="edgeStyle=orthogonalEdgeStyle;curved=1;rounded=0;orthogonalLoop=1;jettySize=auto;html=1;exitX=0.5;exitY=0;exitDx=0;exitDy=0;exitPerimeter=0;entryX=1;entryY=0.5;entryDx=0;entryDy=0;entryPerimeter=0;endArrow=none;endFill=0;" edge="1" parent="1" source="GzetsZCdC6ZMWqAkh9Ud-4" target="GzetsZCdC6ZMWqAkh9Ud-2">
          <mxGeometry relative="1" as="geometry" />
        </mxCell>
        <mxCell id="GzetsZCdC6ZMWqAkh9Ud-21" style="edgeStyle=orthogonalEdgeStyle;curved=1;rounded=0;orthogonalLoop=1;jettySize=auto;html=1;exitX=0.88;exitY=0.9;exitDx=0;exitDy=0;exitPerimeter=0;entryX=0;entryY=0.5;entryDx=0;entryDy=0;entryPerimeter=0;endArrow=none;endFill=0;strokeColor=#7EA6E0;" edge="1" parent="1" source="GzetsZCdC6ZMWqAkh9Ud-4" target="GzetsZCdC6ZMWqAkh9Ud-9">
          <mxGeometry relative="1" as="geometry" />
        </mxCell>
        <mxCell id="GzetsZCdC6ZMWqAkh9Ud-4" value="" style="shape=mxgraph.cisco.routers.router;html=1;pointerEvents=1;dashed=0;fillColor=#036897;strokeColor=#ffffff;strokeWidth=2;verticalLabelPosition=bottom;verticalAlign=top;align=center;outlineConnect=0;" vertex="1" parent="1">
          <mxGeometry x="-514" y="351" width="78" height="53" as="geometry" />
        </mxCell>
        <mxCell id="GzetsZCdC6ZMWqAkh9Ud-11" style="edgeStyle=orthogonalEdgeStyle;curved=1;rounded=0;orthogonalLoop=1;jettySize=auto;html=1;exitX=0.5;exitY=1;exitDx=0;exitDy=0;exitPerimeter=0;entryX=0;entryY=0.5;entryDx=0;entryDy=0;entryPerimeter=0;endArrow=none;endFill=0;" edge="1" parent="1" source="GzetsZCdC6ZMWqAkh9Ud-5" target="GzetsZCdC6ZMWqAkh9Ud-3">
          <mxGeometry relative="1" as="geometry" />
        </mxCell>
        <mxCell id="GzetsZCdC6ZMWqAkh9Ud-5" value="" style="shape=mxgraph.cisco.routers.router;html=1;pointerEvents=1;dashed=0;fillColor=#036897;strokeColor=#ffffff;strokeWidth=2;verticalLabelPosition=bottom;verticalAlign=top;align=center;outlineConnect=0;" vertex="1" parent="1">
          <mxGeometry x="-840" y="351" width="78" height="53" as="geometry" />
        </mxCell>
        <mxCell id="GzetsZCdC6ZMWqAkh9Ud-22" style="edgeStyle=orthogonalEdgeStyle;curved=1;rounded=0;orthogonalLoop=1;jettySize=auto;html=1;exitX=1;exitY=0.5;exitDx=0;exitDy=0;exitPerimeter=0;entryX=0;entryY=0.5;entryDx=0;entryDy=0;entryPerimeter=0;endArrow=none;endFill=0;strokeColor=#7EA6E0;" edge="1" parent="1" source="GzetsZCdC6ZMWqAkh9Ud-8" target="GzetsZCdC6ZMWqAkh9Ud-5">
          <mxGeometry relative="1" as="geometry" />
        </mxCell>
        <mxCell id="GzetsZCdC6ZMWqAkh9Ud-8" value="" style="shape=mxgraph.cisco.routers.wireless_router;html=1;pointerEvents=1;dashed=0;fillColor=#036897;strokeColor=#ffffff;strokeWidth=2;verticalLabelPosition=bottom;verticalAlign=top;align=center;outlineConnect=0;" vertex="1" parent="1">
          <mxGeometry x="-980" y="220" width="78" height="77" as="geometry" />
        </mxCell>
        <mxCell id="GzetsZCdC6ZMWqAkh9Ud-9" value="" style="shape=mxgraph.cisco.routers.wireless_router;html=1;pointerEvents=1;dashed=0;fillColor=#036897;strokeColor=#ffffff;strokeWidth=2;verticalLabelPosition=bottom;verticalAlign=top;align=center;outlineConnect=0;" vertex="1" parent="1">
          <mxGeometry x="-350" y="429" width="78" height="77" as="geometry" />
        </mxCell>
        <mxCell id="GzetsZCdC6ZMWqAkh9Ud-16" value="R1" style="text;html=1;align=center;verticalAlign=middle;resizable=0;points=[];autosize=1;" vertex="1" parent="1">
          <mxGeometry x="-655" y="210" width="30" height="20" as="geometry" />
        </mxCell>
        <mxCell id="GzetsZCdC6ZMWqAkh9Ud-17" value="Fl1.R1" style="text;html=1;align=center;verticalAlign=middle;resizable=0;points=[];autosize=1;" vertex="1" parent="1">
          <mxGeometry x="-765" y="370" width="50" height="20" as="geometry" />
        </mxCell>
        <mxCell id="GzetsZCdC6ZMWqAkh9Ud-19" value="Fl2.R1" style="text;html=1;resizable=0;autosize=1;align=center;verticalAlign=middle;points=[];fillColor=none;strokeColor=none;rounded=0;" vertex="1" parent="1">
          <mxGeometry x="-700" y="429" width="50" height="20" as="geometry" />
        </mxCell>
        <mxCell id="GzetsZCdC6ZMWqAkh9Ud-20" value="Fl3.R1" style="text;html=1;resizable=0;autosize=1;align=center;verticalAlign=middle;points=[];fillColor=none;strokeColor=none;rounded=0;" vertex="1" parent="1">
          <mxGeometry x="-564" y="370" width="50" height="20" as="geometry" />
        </mxCell>
        <mxCell id="GzetsZCdC6ZMWqAkh9Ud-23" value="Fl1.WR1" style="text;html=1;resizable=0;autosize=1;align=center;verticalAlign=middle;points=[];fillColor=none;strokeColor=none;rounded=0;" vertex="1" parent="1">
          <mxGeometry x="-971" y="320" width="60" height="20" as="geometry" />
        </mxCell>
        <mxCell id="GzetsZCdC6ZMWqAkh9Ud-24" value="Fl3.WR1" style="text;html=1;resizable=0;autosize=1;align=center;verticalAlign=middle;points=[];fillColor=none;strokeColor=none;rounded=0;" vertex="1" parent="1">
          <mxGeometry x="-341" y="520" width="60" height="20" as="geometry" />
        </mxCell>
        <mxCell id="GzetsZCdC6ZMWqAkh9Ud-41" style="edgeStyle=orthogonalEdgeStyle;curved=1;rounded=0;orthogonalLoop=1;jettySize=auto;html=1;exitX=0.86;exitY=0.85;exitDx=0;exitDy=0;exitPerimeter=0;entryX=0.12;entryY=0.9;entryDx=0;entryDy=0;entryPerimeter=0;endArrow=none;endFill=0;strokeColor=#000000;" edge="1" parent="1" source="GzetsZCdC6ZMWqAkh9Ud-25" target="GzetsZCdC6ZMWqAkh9Ud-5">
          <mxGeometry relative="1" as="geometry" />
        </mxCell>
        <mxCell id="GzetsZCdC6ZMWqAkh9Ud-25" value="" style="shape=mxgraph.cisco.computers_and_peripherals.pc;html=1;pointerEvents=1;dashed=0;fillColor=#036897;strokeColor=#ffffff;strokeWidth=2;verticalLabelPosition=bottom;verticalAlign=top;align=center;outlineConnect=0;" vertex="1" parent="1">
          <mxGeometry x="-1070" y="450" width="78" height="70" as="geometry" />
        </mxCell>
        <mxCell id="GzetsZCdC6ZMWqAkh9Ud-26" value="" style="shape=mxgraph.cisco.computers_and_peripherals.pc;html=1;pointerEvents=1;dashed=0;fillColor=#036897;strokeColor=#ffffff;strokeWidth=2;verticalLabelPosition=bottom;verticalAlign=top;align=center;outlineConnect=0;" vertex="1" parent="1">
          <mxGeometry x="-778" y="580" width="78" height="70" as="geometry" />
        </mxCell>
        <mxCell id="GzetsZCdC6ZMWqAkh9Ud-39" style="edgeStyle=orthogonalEdgeStyle;curved=1;rounded=0;orthogonalLoop=1;jettySize=auto;html=1;exitX=0.86;exitY=0.85;exitDx=0;exitDy=0;exitPerimeter=0;entryX=0;entryY=0.5;entryDx=0;entryDy=0;entryPerimeter=0;endArrow=none;endFill=0;strokeColor=#000000;" edge="1" parent="1" source="GzetsZCdC6ZMWqAkh9Ud-27" target="GzetsZCdC6ZMWqAkh9Ud-8">
          <mxGeometry relative="1" as="geometry" />
        </mxCell>
        <mxCell id="GzetsZCdC6ZMWqAkh9Ud-27" value="" style="shape=mxgraph.cisco.computers_and_peripherals.pc;html=1;pointerEvents=1;dashed=0;fillColor=#036897;strokeColor=#ffffff;strokeWidth=2;verticalLabelPosition=bottom;verticalAlign=top;align=center;outlineConnect=0;" vertex="1" parent="1">
          <mxGeometry x="-1130" y="100" width="78" height="70" as="geometry" />
        </mxCell>
        <mxCell id="GzetsZCdC6ZMWqAkh9Ud-33" style="edgeStyle=orthogonalEdgeStyle;curved=1;rounded=0;orthogonalLoop=1;jettySize=auto;html=1;exitX=0.02;exitY=1;exitDx=0;exitDy=0;exitPerimeter=0;entryX=0.88;entryY=0.1;entryDx=0;entryDy=0;entryPerimeter=0;endArrow=none;endFill=0;" edge="1" parent="1" source="GzetsZCdC6ZMWqAkh9Ud-28" target="GzetsZCdC6ZMWqAkh9Ud-4">
          <mxGeometry relative="1" as="geometry" />
        </mxCell>
        <mxCell id="GzetsZCdC6ZMWqAkh9Ud-28" value="" style="shape=mxgraph.cisco.computers_and_peripherals.pc;html=1;pointerEvents=1;dashed=0;fillColor=#036897;strokeColor=#ffffff;strokeWidth=2;verticalLabelPosition=bottom;verticalAlign=top;align=center;outlineConnect=0;" vertex="1" parent="1">
          <mxGeometry x="-390" y="235.5" width="78" height="70" as="geometry" />
        </mxCell>
        <mxCell id="GzetsZCdC6ZMWqAkh9Ud-36" style="edgeStyle=orthogonalEdgeStyle;curved=1;rounded=0;orthogonalLoop=1;jettySize=auto;html=1;exitX=0.02;exitY=1;exitDx=0;exitDy=0;exitPerimeter=0;entryX=1;entryY=0.5;entryDx=0;entryDy=0;entryPerimeter=0;endArrow=none;endFill=0;strokeColor=#000000;" edge="1" parent="1" source="GzetsZCdC6ZMWqAkh9Ud-29" target="GzetsZCdC6ZMWqAkh9Ud-9">
          <mxGeometry relative="1" as="geometry" />
        </mxCell>
        <mxCell id="GzetsZCdC6ZMWqAkh9Ud-29" value="" style="shape=mxgraph.cisco.computers_and_peripherals.pc;html=1;pointerEvents=1;dashed=0;fillColor=#036897;strokeColor=#ffffff;strokeWidth=2;verticalLabelPosition=bottom;verticalAlign=top;align=center;outlineConnect=0;" vertex="1" parent="1">
          <mxGeometry x="-240" y="334" width="78" height="70" as="geometry" />
        </mxCell>
        <mxCell id="GzetsZCdC6ZMWqAkh9Ud-42" value="WN1" style="text;html=1;resizable=0;autosize=1;align=center;verticalAlign=middle;points=[];fillColor=none;strokeColor=none;rounded=0;" vertex="1" parent="1">
          <mxGeometry x="-1051" y="100" width="40" height="20" as="geometry" />
        </mxCell>
        <mxCell id="GzetsZCdC6ZMWqAkh9Ud-43" value="N1" style="text;html=1;resizable=0;autosize=1;align=center;verticalAlign=middle;points=[];fillColor=none;strokeColor=none;rounded=0;" vertex="1" parent="1">
          <mxGeometry x="-1047" y="420" width="30" height="20" as="geometry" />
        </mxCell>
        <mxCell id="GzetsZCdC6ZMWqAkh9Ud-44" value="N2" style="text;html=1;resizable=0;autosize=1;align=center;verticalAlign=middle;points=[];fillColor=none;strokeColor=none;rounded=0;" vertex="1" parent="1">
          <mxGeometry x="-808" y="600" width="30" height="20" as="geometry" />
        </mxCell>
        <mxCell id="GzetsZCdC6ZMWqAkh9Ud-45" value="WN2" style="text;html=1;resizable=0;autosize=1;align=center;verticalAlign=middle;points=[];fillColor=none;strokeColor=none;rounded=0;" vertex="1" parent="1">
          <mxGeometry x="-365" y="210" width="40" height="20" as="geometry" />
        </mxCell>
        <mxCell id="GzetsZCdC6ZMWqAkh9Ud-46" value="N3" style="text;html=1;resizable=0;autosize=1;align=center;verticalAlign=middle;points=[];fillColor=none;strokeColor=none;rounded=0;" vertex="1" parent="1">
          <mxGeometry x="-216" y="305.5" width="30" height="20" as="geometry" />
        </mxCell>
        <mxCell id="GzetsZCdC6ZMWqAkh9Ud-47" value="5 подсетей&amp;nbsp;&lt;span style=&quot;font-size: 14.0pt ; font-family: &amp;#34;times new roman&amp;#34; , serif&quot;&gt;10.70.0.0/16&lt;/span&gt;" style="text;html=1;resizable=0;autosize=1;align=center;verticalAlign=middle;points=[];fillColor=none;strokeColor=none;rounded=0;" vertex="1" parent="1">
          <mxGeometry x="-775" y="140" width="170" height="20" as="geometry" />
        </mxCell>
      </root>
    </mxGraphModel>
  </diagram>
</mxfile>
